<svg
xmlns="http://www.w3.org/2000/svg"
xmlns:xlink="http://www.w3.org/1999/xlink"
version="1.1"
id="genomeplot"
onload="init(evt)"
width="1600px"
height="252px"
style="margin: auto; font-family: Helvetica, sans-serif;">

<rect x="0" y="0" width="1600" height="252" style="fill: #ffffff; " />


<defs>
<linearGradient id="genomeplotgpos100" x1="0%" x2="0%" y1="0%" y2="80%" spreadMethod="reflect">
    <stop offset="0%" stop-color="rgb(39,39,39)" />
    <stop offset="100%" stop-color="rgb(0,0,0)" />
</linearGradient>
<linearGradient id="genomeplotgpos75" x1="0%" x2="0%" y1="0%" y2="80%" spreadMethod="reflect">
    <stop offset="0%" stop-color="rgb(87,87,87)" />
    <stop offset="100%" stop-color="rgb(39,39,39)" />
</linearGradient>
<linearGradient id="genomeplotgpos50" x1="0%" x2="0%" y1="0%" y2="80%" spreadMethod="reflect">
    <stop offset="0%" stop-color="rgb(196,196,196)" />
    <stop offset="100%" stop-color="rgb(111,111,111)" />
</linearGradient>
<linearGradient id="genomeplotgpos25" x1="0%" x2="0%" y1="0%" y2="80%" spreadMethod="reflect">
    <stop offset="0%" stop-color="rgb(223,223,223)" />
    <stop offset="100%" stop-color="rgb(196,196,196)" />
</linearGradient>
<linearGradient id="genomeplotgneg" x1="0%" x2="0%" y1="0%" y2="80%" spreadMethod="reflect">
    <stop offset="0%" stop-color="white" />
    <stop offset="100%" stop-color="rgb(223,223,223)" />
</linearGradient>
<linearGradient id="genomeplotgvar" x1="0%" x2="0%" y1="0%" y2="80%" spreadMethod="reflect">
    <stop offset="0%" stop-color="rgb(196,196,196)" />
    <stop offset="100%" stop-color="rgb(111,111,111)" />
</linearGradient>
<linearGradient id="genomeplotstalk" x1="0%" x2="0%" y1="0%" y2="80%" spreadMethod="reflect">
    <stop offset="0%" stop-color="rgb(39,39,39)" />
    <stop offset="100%" stop-color="rgb(0,0,0)" />
</linearGradient>
<linearGradient id="genomeplotacen" x1="0%" x2="0%" y1="0%" y2="80%" spreadMethod="reflect">
    <stop offset="0%" stop-color="rgb(163,55,247)" />
    <stop offset="100%" stop-color="rgb(138,43,226)" />
</linearGradient>

<style type="text/css">
<![CDATA[
.chrlab { text-anchor: middle; font-size: 12px }
]]>
</style>
</defs>
<text x="800.0" y="45" class="chrlab">9 (0-140000000)</text>
<rect x="30.0" y="49.6" width="24.2" height="12.8" style="fill: url(#genomeplotgneg); " />
<rect x="54.2" y="49.6" width="26.4" height="12.8" style="fill: url(#genomeplotgpos25); " />
<rect x="80.6" y="49.6" width="48.4" height="12.8" style="fill: url(#genomeplotgneg); " />
<rect x="129.0" y="49.6" width="56.1" height="12.8" style="fill: url(#genomeplotgpos75); " />
<rect x="185.1" y="49.6" width="27.5" height="12.8" style="fill: url(#genomeplotgneg); " />
<rect x="212.6" y="49.6" width="20.9" height="12.8" style="fill: url(#genomeplotgpos25); " />
<rect x="233.5" y="49.6" width="15.4" height="12.8" style="fill: url(#genomeplotgneg); " />
<rect x="248.9" y="49.6" width="61.6" height="12.8" style="fill: url(#genomeplotgpos100); " />
<rect x="310.5" y="49.6" width="28.6" height="12.8" style="fill: url(#genomeplotgneg); " />
<rect x="339.1" y="49.6" width="51.7" height="12.8" style="fill: url(#genomeplotgpos100); " />
<rect x="390.8" y="49.6" width="38.5" height="12.8" style="fill: url(#genomeplotgneg); " />
<rect x="429.3" y="49.6" width="18.7" height="12.8" style="fill: url(#genomeplotgpos25); " />
<rect x="448.0" y="49.6" width="24.2" height="12.8" style="fill: url(#genomeplotgneg); " />
<rect x="472.2" y="49.6" width="24.2" height="12.8" style="fill: url(#genomeplotgpos50); " />
<rect x="496.4" y="49.6" width="47.3" height="12.8" style="fill: url(#genomeplotgneg); " />
<rect x="543.7" y="49.6" width="56.1" height="12.8" style="fill: url(#genomeplotacen); " />
<rect x="599.8" y="49.6" width="93.5" height="12.8" style="fill: url(#genomeplotacen); " />
<rect x="693.3" y="49.6" width="106.7" height="12.8" style="fill: url(#genomeplotgvar); " />
<rect x="800.0" y="49.6" width="5.5" height="12.8" style="fill: url(#genomeplotgneg); " />
<rect x="805.5" y="49.6" width="24.2" height="12.8" style="fill: url(#genomeplotgpos25); " />
<rect x="829.7" y="49.6" width="4.4" height="12.8" style="fill: url(#genomeplotgneg); " />
<rect x="834.1" y="49.6" width="68.2" height="12.8" style="fill: url(#genomeplotgpos50); " />
<rect x="902.3" y="49.6" width="11.0" height="12.8" style="fill: url(#genomeplotgneg); " />
<rect x="913.3" y="49.6" width="34.1" height="12.8" style="fill: url(#genomeplotgpos50); " />
<rect x="947.4" y="49.6" width="29.7" height="12.8" style="fill: url(#genomeplotgneg); " />
<rect x="977.1" y="49.6" width="38.5" height="12.8" style="fill: url(#genomeplotgpos50); " />
<rect x="1015.6" y="49.6" width="15.4" height="12.8" style="fill: url(#genomeplotgneg); " />
<rect x="1031.0" y="49.6" width="22.0" height="12.8" style="fill: url(#genomeplotgpos25); " />
<rect x="1053.0" y="49.6" width="28.6" height="12.8" style="fill: url(#genomeplotgneg); " />
<rect x="1081.6" y="49.6" width="28.6" height="12.8" style="fill: url(#genomeplotgpos25); " />
<rect x="1110.2" y="49.6" width="37.4" height="12.8" style="fill: url(#genomeplotgneg); " />
<rect x="1147.6" y="49.6" width="61.6" height="12.8" style="fill: url(#genomeplotgpos100); " />
<rect x="1209.2" y="49.6" width="34.1" height="12.8" style="fill: url(#genomeplotgneg); " />
<rect x="1243.3" y="49.6" width="39.6" height="12.8" style="fill: url(#genomeplotgpos25); " />
<rect x="1282.9" y="49.6" width="30.8" height="12.8" style="fill: url(#genomeplotgneg); " />
<rect x="1313.7" y="49.6" width="58.3" height="12.8" style="fill: url(#genomeplotgpos75); " />
<rect x="1372.0" y="49.6" width="41.8" height="12.8" style="fill: url(#genomeplotgneg); " />
<rect x="1413.8" y="49.6" width="38.5" height="12.8" style="fill: url(#genomeplotgpos25); " />
<rect x="1452.3" y="49.6" width="35.2" height="12.8" style="fill: url(#genomeplotgneg); " />
<rect x="1487.5" y="49.6" width="3.3" height="12.8" style="fill: url(#genomeplotgpos25); " />
<rect x="1490.8" y="49.6" width="23.1" height="12.8" style="fill: url(#genomeplotgneg); " />
<rect x="1513.9" y="49.6" width="18.7" height="12.8" style="fill: url(#genomeplotgpos25); " />
<rect x="1532.6" y="49.6" width="37.4" height="12.8" style="fill: url(#genomeplotgneg); " />
<style type="text/css"><![CDATA[
  .cen {stroke-width: 1px; stroke: #c0e3ee; opacity: 0.8 ; }
  .tick {stroke-width: 1px; stroke: #666666; opacity: 0.8 ; }
  .ylab {text-anchor: end; font-size: 8px; fill: #666666;}
]]></style>
<line x1="29"  y1="189.5"  x2="30"  y2="189.5"  class="tick"  />
<line x1="1570"  y1="189.5"  x2="1571"  y2="189.5"  class="tick"  />
<line x1="30"  y1="189.5"  x2="1570"  y2="189.5"  class="cen"  />
<text x="28" y="192.5" class="ylab">-75%</text>
<line x1="29"  y1="172.0"  x2="30"  y2="172.0"  class="tick"  />
<line x1="1570"  y1="172.0"  x2="1571"  y2="172.0"  class="tick"  />
<line x1="30"  y1="172.0"  x2="1570"  y2="172.0"  class="cen"  />
<text x="28" y="175" class="ylab">-50%</text>
<line x1="29"  y1="154.5"  x2="30"  y2="154.5"  class="tick"  />
<line x1="1570"  y1="154.5"  x2="1571"  y2="154.5"  class="tick"  />
<line x1="30"  y1="154.5"  x2="1570"  y2="154.5"  class="cen"  />
<text x="28" y="157.5" class="ylab">-25%</text>
<line x1="29"  y1="137.0"  x2="30"  y2="137.0"  class="tick"  />
<line x1="1570"  y1="137.0"  x2="1571"  y2="137.0"  class="tick"  />
<line x1="30"  y1="137.0"  x2="1570"  y2="137.0"  class="cen"  />
<text x="28" y="140" class="ylab">0%</text>
<line x1="29"  y1="119.5"  x2="30"  y2="119.5"  class="tick"  />
<line x1="1570"  y1="119.5"  x2="1571"  y2="119.5"  class="tick"  />
<line x1="30"  y1="119.5"  x2="1570"  y2="119.5"  class="cen"  />
<text x="28" y="122.5" class="ylab">25%</text>
<line x1="29"  y1="102.0"  x2="30"  y2="102.0"  class="tick"  />
<line x1="1570"  y1="102.0"  x2="1571"  y2="102.0"  class="tick"  />
<line x1="30"  y1="102.0"  x2="1570"  y2="102.0"  class="cen"  />
<text x="28" y="105" class="ylab">50%</text>
<line x1="29"  y1="84.5"  x2="30"  y2="84.5"  class="tick"  />
<line x1="1570"  y1="84.5"  x2="1571"  y2="84.5"  class="tick"  />
<line x1="30"  y1="84.5"  x2="1570"  y2="84.5"  class="cen"  />
<text x="28" y="87.5" class="ylab">75%</text>
<rect x="30" y="67" width="1540.0" height="140" style="fill: #f3f9ff; fill-opacity: 0.8; " />
<polygon points="30 137 35.5 124.9 46.5 125.4 57.5 122.6 68.5 122.1 79.5 118.7 90.5 115.8 101.5 118.9 112.5 122.6 123.5 122.6 134.5 122.6 145.5 122.6 156.5 122.6 167.5 121.2 178.5 121.7 189.5 120.2 200.5 120.0 211.5 120.5 222.5 120.3 233.5 122.0 244.5 118.6 255.5 119.5 266.5 118.6 277.5 118.5 288.5 117.9 299.5 118.2 310.5 117.5 321.5 115.6 332.5 116.0 343.5 117.4 354.5 118.3 365.5 118.3 376.5 118.3 387.5 114.2 398.5 113.3 409.5 112.3 420.5 112.7 431.5 115.9 442.5 116.3 453.5 120.4 464.5 123.8 475.5 123.8 486.5 122.5 497.5 123.7 508.5 125.4 519.5 125.4 530.5 125.4 541.5 125.4 552.5 125.4 563.5 125.4 574.5 125.4 585.5 125.4 596.5 125.4 607.5 125.4 618.5 125.4 629.5 125.4 640.5 125.4 651.5 125.4 662.5 125.4 673.5 125.4 684.5 125.4 695.5 125.4 706.5 125.4 717.5 125.4 728.5 125.4 739.5 125.4 750.5 125.4 761.5 125.4 772.5 125.4 783.5 125.4 794.5 125.4 805.5 120.0 816.5 118.3 827.5 117.5 838.5 117.9 849.5 117.2 860.5 116.8 871.5 118.9 882.5 115.6 893.5 116.3 904.5 114.9 915.5 115.3 926.5 116.7 937.5 116.1 948.5 116.7 959.5 114.5 970.5 116.0 981.5 113.6 992.5 117.4 1003.5 115.7 1014.5 116.9 1025.5 115.8 1036.5 114.5 1047.5 117.0 1058.5 116.2 1069.5 115.5 1080.5 113.2 1091.5 116.0 1102.5 115.8 1113.5 116.4 1124.5 115.5 1135.5 113.4 1146.5 113.2 1157.5 113.0 1168.5 112.6 1179.5 113.0 1190.5 115.5 1201.5 115.8 1212.5 115.7 1223.5 115.4 1234.5 116.5 1245.5 115.3 1256.5 114.5 1267.5 115.8 1278.5 114.8 1289.5 113.6 1300.5 113.2 1311.5 112.2 1322.5 116.8 1333.5 117.9 1344.5 117.4 1355.5 117.4 1366.5 118.2 1377.5 118.0 1388.5 115.3 1399.5 115.4 1410.5 116.3 1421.5 118.8 1432.5 114.8 1443.5 118.2 1454.5 118.7 1465.5 114.0 1476.5 114.5 1487.5 117.3 1498.5 117.1 1509.5 117.7 1520.5 117.4 1531.5 116.6 1542.5 120.7 1553.5 118.5 1564.5 114.4 1570.0 123.2 1570.0 137" fill="#FFC633" stroke-width="0px" />
<polygon points="30 137 35.5 144.6 46.5 144.1 57.5 145.9 68.5 145.3 79.5 147.7 90.5 149.5 101.5 147.9 112.5 145.2 123.5 145.2 134.5 145.2 145.5 145.2 156.5 145.2 167.5 147.3 178.5 147.2 189.5 148.2 200.5 147.7 211.5 147.5 222.5 148.2 233.5 147.3 244.5 149.9 255.5 148.1 266.5 149.3 277.5 148.8 288.5 148.3 299.5 148.7 310.5 149.3 321.5 150.0 332.5 150.3 343.5 148.9 354.5 148.5 365.5 148.5 376.5 148.5 387.5 152.2 398.5 157.1 409.5 158.2 420.5 158.6 431.5 154.8 442.5 154.2 453.5 151.9 464.5 149.5 475.5 149.5 486.5 150.9 497.5 148.2 508.5 146.7 519.5 146.7 530.5 146.7 541.5 146.7 552.5 146.7 563.5 146.7 574.5 146.7 585.5 146.7 596.5 146.7 607.5 146.7 618.5 146.7 629.5 146.7 640.5 146.7 651.5 146.7 662.5 146.7 673.5 146.7 684.5 146.7 695.5 146.7 706.5 146.7 717.5 146.7 728.5 146.7 739.5 146.7 750.5 146.7 761.5 146.7 772.5 146.7 783.5 146.7 794.5 146.7 805.5 152.2 816.5 154.2 827.5 154.5 838.5 154.0 849.5 154.0 860.5 154.1 871.5 152.2 882.5 155.1 893.5 154.5 904.5 156.1 915.5 155.1 926.5 153.9 937.5 154.5 948.5 153.8 959.5 155.9 970.5 155.4 981.5 157.2 992.5 155.6 1003.5 156.9 1014.5 156.1 1025.5 158.2 1036.5 158.2 1047.5 156.7 1058.5 157.6 1069.5 157.6 1080.5 160.0 1091.5 157.8 1102.5 157.5 1113.5 156.0 1124.5 156.6 1135.5 157.4 1146.5 158.2 1157.5 156.9 1168.5 157.3 1179.5 157.6 1190.5 155.4 1201.5 155.4 1212.5 155.9 1223.5 156.6 1234.5 155.6 1245.5 156.4 1256.5 156.8 1267.5 155.9 1278.5 155.5 1289.5 157.6 1300.5 157.1 1311.5 159.9 1322.5 157.0 1333.5 155.4 1344.5 156.1 1355.5 155.5 1366.5 155.0 1377.5 155.1 1388.5 158.2 1399.5 158.4 1410.5 158.5 1421.5 157.3 1432.5 160.6 1443.5 158.3 1454.5 158.0 1465.5 164.7 1476.5 163.4 1487.5 160.4 1498.5 160.0 1509.5 159.9 1520.5 161.3 1531.5 160.0 1542.5 156.6 1553.5 160.1 1564.5 165.0 1570.0 151.9 1570.0 137" fill="#33A0FF" stroke-width="0px" />
<line x1="30"  y1="137"  x2="1570"  y2="137"  class="cen"  />
<text x="30" y="219" style="text-anchor: start; font-size: 12px; fill: #999999"></text>
<text x="1570" y="219" style="text-anchor: end; font-size: 12px; fill: #999999">&#x24B8; 2017 progenetix.org</text>
</svg>